<?xml version="1.0" standalone="no"?>
<!DOCTYPE svg PUBLIC "-//W3C//DTD SVG 20010904//EN"
 "http://www.w3.org/TR/2001/REC-SVG-20010904/DTD/svg10.dtd">
<svg version="1.0" xmlns="http://www.w3.org/2000/svg"
 width="416.000000pt" height="431.000000pt" viewBox="0 0 416.000000 431.000000"
 preserveAspectRatio="xMidYMid meet">
<metadata>
Created by potrace 1.16, written by Peter Selinger 2001-2019
</metadata>
<g transform="translate(0.000000,431.000000) scale(0.100000,-0.100000)"
fill="#000000" stroke="none">
<path d="M2619 4207 c-145 -41 -222 -140 -221 -287 0 -133 59 -236 162 -284
36 -17 65 -21 145 -21 91 0 104 3 146 27 106 62 155 156 147 282 -6 85 -31
147 -83 200 -73 74 -200 109 -296 83z"/>
<path d="M3185 3971 c-74 -34 -115 -102 -115 -188 0 -133 138 -223 244 -161
115 67 117 277 2 347 -41 26 -79 26 -131 2z"/>
<path d="M3510 3773 c-93 -48 -115 -212 -40 -296 26 -30 33 -32 92 -32 73 0
104 17 140 80 27 48 30 134 5 182 -37 70 -129 101 -197 66z"/>
<path d="M2825 3536 c-179 -44 -347 -189 -394 -341 -26 -84 -35 -203 -22 -302
9 -68 20 -102 69 -200 72 -144 101 -227 109 -307 11 -119 -38 -210 -152 -289
-156 -106 -240 -219 -275 -367 -55 -236 3 -415 178 -550 93 -72 136 -83 300
-78 157 5 246 29 364 99 132 77 318 281 459 499 85 133 201 373 248 515 60
180 74 278 68 470 -7 203 -27 278 -121 440 -55 93 -200 240 -293 294 -185 109
-389 153 -538 117z"/>
<path d="M3763 3438 c-33 -9 -66 -51 -78 -100 -16 -65 41 -138 108 -138 121 0
169 187 59 228 -48 18 -57 19 -89 10z"/>
<path d="M1339 3316 c-129 -46 -199 -148 -201 -292 0 -67 3 -83 33 -142 26
-51 46 -75 87 -103 127 -89 305 -70 407 43 58 64 79 129 73 222 -8 123 -88
234 -195 270 -56 19 -154 20 -204 2z"/>
<path d="M3857 3120 c-29 -18 -50 -70 -43 -108 15 -97 136 -122 186 -40 28 46
25 73 -13 114 -35 38 -96 54 -130 34z"/>
<path d="M873 3099 c-98 -20 -158 -137 -128 -251 45 -176 275 -166 315 13 31
137 -69 264 -187 238z"/>
<path d="M489 2887 c-19 -12 -44 -42 -57 -67 -58 -111 17 -260 131 -260 142 0
203 166 104 285 -53 65 -120 81 -178 42z"/>
<path d="M1020 2644 c-36 -7 -106 -34 -157 -59 -270 -133 -459 -387 -504 -676
-22 -142 2 -377 58 -553 82 -262 258 -577 449 -807 174 -210 466 -369 674
-369 205 1 383 140 444 349 20 70 21 218 1 296 -35 136 -142 294 -251 370
-144 101 -184 161 -184 281 0 92 18 151 96 310 75 155 83 188 84 314 0 190
-26 264 -135 379 -90 96 -167 145 -255 165 -84 19 -232 19 -320 0z"/>
<path d="M268 2540 c-61 -47 -55 -153 11 -197 66 -45 145 -16 171 63 16 47 8
72 -34 113 -45 44 -108 53 -148 21z"/>
<path d="M169 2275 c-58 -32 -63 -123 -8 -169 59 -50 145 -21 164 54 18 76
-87 154 -156 115z"/>
</g>
</svg>
